<svg xmlns="http://www.w3.org/2000/svg" viewBox="0 0 84.54 98.59"><defs><style>.cls-1{fill:#4c84ff;}.cls-2{fill:#c1e3f6;}</style></defs><title>Asset 1</title><g id="Layer_2" data-name="Layer 2"><g id="Layer_1-2" data-name="Layer 1"><path class="cls-1" d="M.51,35.62C3.13,21.7,10.58,11.29,23.14,4.69a37.44,37.44,0,0,1,7.55-2.95C43.18-1.73,55,0,65.78,7.16A41.06,41.06,0,0,1,83.85,34.47a43.47,43.47,0,0,1,.67,7A42,42,0,0,1,61.85,79.84c-1.46.76-3,1.36-4.53,2a1.26,1.26,0,0,0-.93,1.38c.08,2.74.09,5.49.12,8.23a4.57,4.57,0,0,0,1.18.31q9.91,0,19.84,0v6.81H7.08V91.83c.44,0,.88-.06,1.32-.06,6.3,0,12.6,0,18.9,0a2.85,2.85,0,0,0,1-.42l0-.4V88.74c0-1.46,0-2.92,0-4.38l-.06-1.85a4.21,4.21,0,0,0-.93-.65A41.81,41.81,0,0,1,4.62,61.46,42,42,0,0,1,.16,38.34m35.29,53c.29.13.58.37.87.37q6.09,0,12.16,0c.28,0,.57-.25.85-.38v-7H35.45ZM77.61,42.45c-.1-1.39-.15-2.78-.31-4.17a34.24,34.24,0,0,0-9.15-19.92A33.77,33.77,0,0,0,52.7,8.7a36,36,0,0,0-8.38-1.58,35.18,35.18,0,0,0-19.4,4.59A34.5,34.5,0,0,0,9.41,29.62a33.92,33.92,0,0,0-1.95,17.7A34.6,34.6,0,0,0,17.1,66.9a33.91,33.91,0,0,0,17.3,9.73,29.75,29.75,0,0,0,4.64.84c5.24.24,10.45-.07,15.41-2A41.94,41.94,0,0,0,60,72.75a37.39,37.39,0,0,0,5.12-3.6,33.66,33.66,0,0,0,4.32-4.37A37,37,0,0,0,73,59.65a34.2,34.2,0,0,0,2.47-5.36A34.38,34.38,0,0,0,77.61,42.45Z"/><path class="cls-2" d="M77.61,42.45a34.38,34.38,0,0,1-2.17,11.84A34.2,34.2,0,0,1,73,59.65a37,37,0,0,1-3.56,5.13,33.66,33.66,0,0,1-4.32,4.37A37.39,37.39,0,0,1,60,72.75a41.94,41.94,0,0,1-5.52,2.68c-5,2-10.17,2.28-15.41,2a29.75,29.75,0,0,1-4.64-.84A33.91,33.91,0,0,1,17.1,66.9,34.6,34.6,0,0,1,7.46,47.32a33.92,33.92,0,0,1,2-17.7A34.5,34.5,0,0,1,24.92,11.71a35.18,35.18,0,0,1,19.4-4.59A36,36,0,0,1,52.7,8.7a33.77,33.77,0,0,1,15.45,9.66A34.24,34.24,0,0,1,77.3,38.28C77.46,39.67,77.51,41.06,77.61,42.45ZM63.45,42.3a21.16,21.16,0,1,0-42.3,1.05A21.36,21.36,0,0,0,42.27,63.46,21.15,21.15,0,0,0,63.45,42.3Z"/><path class="cls-1" d="M63.45,42.3A21.15,21.15,0,0,1,42.27,63.46a21.15,21.15,0,1,1,.07-42.29A21.12,21.12,0,0,1,63.45,42.3Zm-7,.9c-.13-8.94-6.4-15.08-14.39-15A13.92,13.92,0,0,0,28.29,43.34c.53,8.08,7,13.57,15.67,13.1A12.81,12.81,0,0,0,52.57,52,13.38,13.38,0,0,0,56.41,43.2Z"/></g></g></svg>